#!OML:ASF E:\CV Data\Top Level 1\Subject 1\Session 1\player.ASF
:FULLY-SPECIFIED
:DEGREES
1145
root 0.345758 17.5378 5.61685 1.51295 33.6326 -13.7369
lowerback 15.9189 3.9355 3.55918
upperback 2.16731 6.26895 5.19823
thorax -6.80508 3.05598 2.1821
lowerneck 5.07702 -19.58 -18.9104
upperneck -11.803 -26.4026 34.3873
head 3.50504 -14.0401 11.7833
rclavicle 4.77083e-014 1.98785e-014
rhumerus 358.64 325.067 668.697
rradius 20.6146
rwrist -10.5878
rhand -21.9038 0.490376
rfingers 7.12502
rthumb 4.50162 -29.4418
lclavicle 4.77083e-014 1.98785e-014
lhumerus -39.1716 6.28622 78.8501
lradius 41.5083
lwrist -10.7126
lhand -0.79273 5.09115
lfingers 7.12502
lthumb 24.8309 33.4988
rfemur -9.40529 -10.2917 9.87142
rtibia 61.2185
rfoot 2.16377 -9.12702
rtoes 8.9884
lfemur -35.4794 -11.0605 -5.67794
ltibia 30.5514
lfoot -3.36746 -17.7579
ltoes 1.28925
1146
root 0.298502 17.5298 5.61346 1.07441 33.1909 -13.7118
lowerback 15.7454 3.94505 3.4298
upperback 2.15764 6.24095 5.12038
thorax -6.72372 3.04599 2.18814
lowerneck 5.03342 -19.6038 -18.9758
upperneck -11.2262 -26.5685 34.2234
head 3.69276 -14.0765 11.675
rclavicle 1.59028e-014 1.82882e-014
rhumerus 358.819 327.271 670.368
rradius 20.666
rwrist -8.67265
rhand -20.5825 1.44484
rfingers 7.12502
rthumb 5.77746 -28.4564
lclavicle 1.59028e-014 1.82882e-014
lhumerus -39.3661 6.50254 78.4747
lradius 42.2194
lwrist -9.19484
lhand -2.00568 5.11283
lfingers 7.12502
lthumb 23.6679 33.6758
rfemur -9.48217 -10.7425 10.2839
rtibia 61.2142
rfoot 1.95506 -8.63319
rtoes 7.85282
lfemur -34.9904 -11.0285 -5.55054
ltibia 30.6539
lfoot -3.4551 -17.4344
ltoes 0.845476
1147
root 0.249271 17.5212 5.60867 0.667122 32.7128 -13.6581
lowerback 15.5744 3.95051 3.29299
upperback 2.14254 6.20624 5.03005
thorax -6.6486 3.03238 2.18619
lowerneck 4.96493 -19.6094 -19.0497
upperneck -10.6199 -26.7121 34.0438
head 3.88609 -14.098 11.5658
rclavicle -5.36719e-015 3.18055e-015
rhumerus 359.024 329.669 671.891
rradius 20.9359
rwrist -7.31422
rhand -19.9413 2.3308
rfingers 7.12502
rthumb 6.39647 -27.5526
lclavicle -5.36719e-015 3.18055e-015
lhumerus -39.5785 6.74851 78.0611
lradius 42.906
lwrist -7.97416
lhand -3.33616 5.04037
lfingers 7.12502
lthumb 22.3913 33.7626
rfemur -9.55015 -11.1263 10.7177
rtibia 61.1614
rfoot 1.71935 -8.03964
rtoes 6.51774
lfemur -34.5094 -10.9688 -5.43702
ltibia 30.7495
lfoot -3.53421 -17.1045
ltoes 0.382679
1148
root 0.198321 17.5117 5.60254 0.28811 32.2077 -13.5741
lowerback 15.4033 3.95284 3.15514
upperback 2.12037 6.1666 4.92108
thorax -6.57874 3.01578 2.1659
lowerneck 4.88928 -19.6007 -19.1136
upperneck -9.99131 -26.837 33.8452
head 4.07755 -14.109 11.4542
rclavicle -3.77691e-015 -4.13472e-014
rhumerus 359.254 332.095 673.264
rradius 21.3881
rwrist -6.41293
rhand -19.9005 3.05524
rfingers 7.12502
rthumb 6.43586 -26.827
lclavicle -3.77691e-015 -4.13472e-014
lhumerus -39.8029 6.98249 77.6283
lradius 43.5731
lwrist -6.93379
lhand -4.81442 5.02521
lfingers 7.12502
lthumb 20.9717 33.9114
rfemur -9.59304 -11.4554 11.1625
rtibia 61.0497
rfoot 1.46082 -7.34396
rtoes 5.01866
lfemur -34.0366 -10.8928 -5.34023
ltibia 30.8424
lfoot -3.6066 -16.7651
ltoes -0.0849282
1149
root 0.145721 17.501 5.59462 -0.0634177 31.6791 -13.4627
lowerback 15.236 3.94503 3.01776
upperback 2.08835 6.11384 4.79762
thorax -6.51941 2.99218 2.13219
lowerneck 4.80184 -19.5714 -19.1742
upperneck -9.32762 -26.9366 33.6183
head 4.2692 -14.1048 11.3392
rclavicle 4.12478e-014 -1.47101e-014
rhumerus 359.547 334.419 674.467
rradius 21.9769
rwrist -5.86194
rhand -20.2994 3.55382
rfingers 7.12502
rthumb 6.05075 -26.3398
lclavicle 4.12478e-014 -1.47101e-014
lhumerus -40.0389 7.25133 77.1583
lradius 44.2006
lwrist -6.06029
lhand -6.35942 5.01406
lfingers 7.12502
lthumb 19.4868 34.0575
rfemur -9.61325 -11.7335 11.6163
rtibia 60.871
rfoot 1.20378 -6.55849
rtoes 3.39573
lfemur -33.5795 -10.8045 -5.25779
ltibia 30.9386
lfoot -3.67433 -16.4149
ltoes -0.558421
1150
root 0.0912244 17.4891 5.58519 -0.403238 31.1382 -13.3388
lowerback 15.0766 3.92719 2.88966
upperback 2.04746 6.05006 4.66363
thorax -6.47146 2.96249 2.08366
lowerneck 4.71349 -19.5252 -19.2189
upperneck -8.63656 -27.0139 33.3596
head 4.45533 -14.0887 11.2189
rclavicle -5.79457e-014 -3.8763e-014
rhumerus 359.918 336.539 675.505
rradius 22.6547
rwrist -5.61884
rhand -20.9956 3.83264
rfingers 7.12502
rthumb 5.37862 -26.0791
lclavicle -5.79457e-014 -3.8763e-014
lhumerus -40.2805 7.53783 76.6575
lradius 44.7944
lwrist -5.27398
lhand -7.89629 5.02679
lfingers 7.12502
lthumb 18.0086 34.2131
rfemur -9.59245 -11.9657 12.0924
rtibia 60.6157
rfoot 0.957045 -5.71078
rtoes 1.71208
lfemur -33.135 -10.7071 -5.17759
ltibia 31.0424
lfoot -3.74348 -16.0619
ltoes -1.0215
1151
root 0.0351992 17.4758 5.5742 -0.736617 30.5779 -13.2102
lowerback 14.9254 3.90191 2.77972
upperback 1.99801 5.98021 4.52117
thorax -6.4342 2.92897 2.01648
lowerneck 4.61853 -19.4633 -19.248
upperneck -7.91238 -27.0703 33.0645
head 4.63818 -14.0606 11.0908
rclavicle 3.88127e-014 -4.39314e-014
rhumerus 360.374 338.396 676.377
rradius 23.3953
rwrist -5.64655
rhand -21.8633 3.92032
rfingers 7.12502
rthumb 4.54077 -26.011
lclavicle 3.88127e-014 -4.39314e-014
lhumerus -40.524 7.82616 76.1392
lradius 45.3626
lwrist -4.46271
lhand -9.42897 5.10718
lfingers 7.12502
lthumb 16.5335 34.4228
rfemur -9.52733 -12.149 12.594
rtibia 60.2787
rfoot 0.746589 -4.81358
rtoes 0.0343015
lfemur -32.7022 -10.6022 -5.09075
ltibia 31.1584
lfoot -3.81773 -15.7003
ltoes -1.48357
